<svg id="SvgjsSvg1001" width="288" height="288" xmlns="http://www.w3.org/2000/svg" version="1.1" xmlns:xlink="http://www.w3.org/1999/xlink" xmlns:svgjs="http://svgjs.com/svgjs"><defs id="SvgjsDefs1002"></defs><g id="SvgjsG1008"><svg xmlns="http://www.w3.org/2000/svg" fill-rule="evenodd" stroke-linejoin="round" stroke-miterlimit="2" clip-rule="evenodd" viewBox="0 0 1350 750" width="288" height="288"><path fill="#f2b671" fill-rule="nonzero" d="M2057,811C2051.03,826.397 2048.1,849.4 2055,865L2056,865L2055,847L2056,847L2059,862C2080.84,862 2103.21,860.597 2125,862.089C2139.06,863.052 2158.26,866.549 2171.96,863.366C2181.93,861.047 2184.44,829.13 2175,826C2181.94,811.963 2158.47,815 2151,815C2119.84,815 2087.31,817.847 2057,811Z" transform="translate(-1052.35 -619.554)" class="colore0c86d svgShape"></path><path fill="#555c6d" fill-rule="nonzero" d="M2060,811L2061,812L2060,811Z" transform="translate(-1052.35 -619.554)" class="color555c6d svgShape"></path><path fill="#cadb69" fill-rule="nonzero" d="M1915,815L1908,837L1907,837L1907,831L1905,831L1905,848L1906,848L1907,842L1908,842L1912,865C1933.22,860.149 1957.25,863 1979,863C1999.8,863 2022.55,860.203 2043,864L2043,846L2045,857L2046,857L2046,825L2045,825L2043,835L2042,835L2043,812C2016.89,816.847 1987.55,814.364 1961,815.015C1946.18,815.378 1929.63,818.482 1915,815Z" transform="translate(-1052.35 -619.554)" class="color8f6a6e svgShape"></path><path fill="#555c6d" fill-rule="nonzero" d="M1800,814L1801,815L1800,814Z" transform="translate(-1052.35 -619.554)" class="color555c6d svgShape"></path><path fill="#cadb69" fill-rule="nonzero" d="M1797,862L1800,860L1800,866L1897,866L1896,854L1898,859L1899,859L1898,847L1897,847L1897,851L1895,851C1894.94,843.366 1892.49,834.333 1898,828L1898,840L1899,840L1901,820L1900,820L1899,824L1898,824L1899,815C1873.37,815.528 1847.7,816 1822,816C1815,816 1800.03,811.891 1794.97,817.51C1790.25,822.746 1788.17,842.275 1790.6,848.741C1792.38,853.458 1795.62,856.724 1797,862Z" transform="translate(-1052.35 -619.554)" class="color8f6a6e svgShape"></path><path fill="#555c6d" fill-rule="nonzero" d="M1803,814L1804,815L1803,814Z" transform="translate(-1052.35 -619.554)" class="color555c6d svgShape"></path><path fill="#010101" fill-rule="nonzero" d="M2058,814C2053.39,822.781 2053.79,831.454 2055,841L2057,841L2060,814L2058,814Z" transform="translate(-1052.35 -619.554)" class="color010101 svgShape"></path><path fill="#cadb69" fill-rule="nonzero" d="M2173,815L2174,816L2173,815Z" transform="translate(-1052.35 -619.554)" class="color8f6a6e svgShape"></path><path fill="#f2b671" fill-rule="nonzero" d="M1646,841L1645,832L1644,832L1643,857L1644,857L1646,846C1647.23,850.993 1646.73,863.987 1651.51,866.882C1654.26,868.548 1659.02,866.309 1662,866.09C1669.93,865.509 1678.05,866 1686,866C1716.66,866 1752.12,861.17 1782,868C1781.35,864.106 1777.42,849.605 1783,851L1781,816C1750.67,816.084 1720.36,819 1690,819C1681.02,819 1661.01,815.896 1653.43,821.028C1648.76,824.187 1648.25,835.915 1646,841Z" transform="translate(-1052.35 -619.554)" class="colore0c86d svgShape"></path><path fill="#555c6d" fill-rule="nonzero" d="M1542.67,817.333L1543.33,817.667L1542.67,817.333M1539,818L1540,819L1539,818Z" transform="translate(-1052.35 -619.554)" class="color555c6d svgShape"></path><path fill="#abaab7" fill-rule="nonzero" d="M1537,864C1540.29,864.43 1539.95,867.04 1540,870L1635,870L1634,858L1636,861L1637,861L1637,843L1636,843L1635,855L1634,855L1635,831L1636,831L1637,836L1638,836L1639,825L1638,825L1636,827L1637,819L1561,819C1554.16,819 1539.9,815.369 1535.09,821.499C1531.95,825.501 1533.17,831.413 1533.71,836C1534.87,845.758 1534.73,854.421 1537,864Z" transform="translate(-1052.35 -619.554)" class="colorabaab7 svgShape"></path><path fill="#f2b671" fill-rule="nonzero" d="M1394,821L1386,843L1386,833L1385,833L1384,857L1385,857L1386,848L1387,848L1391.73,868.968L1402,869.039L1426,869L1523,870L1522,852L1523,852L1524,860L1525,860L1525,833L1524,833L1523,842L1522,842L1522,819C1496.82,819 1471.12,819.369 1446,821.089C1429.76,822.202 1409.97,824.802 1394,821M1272,857C1269.81,862.08 1272.09,865.854 1277,868C1277.81,876.125 1293.88,873 1300,873C1325.39,873 1350.64,872 1376,872L1376,861L1377,864L1378,864L1380,827L1379,827L1378,830L1377,830L1378,822L1308,822C1298.24,822 1285.48,819.808 1276.04,822.318C1265.98,824.995 1263.2,852.164 1272,857Z" transform="translate(-1052.35 -619.554)" class="colore0c86d svgShape"></path><path fill="#555c6d" fill-rule="nonzero" d="M1272,823L1273,824L1272,823Z" transform="translate(-1052.35 -619.554)" class="color555c6d svgShape"></path><path fill="#cadb69" fill-rule="nonzero" d="M1636.33,823.667L1636.67,824.333L1636.33,823.667Z" transform="translate(-1052.35 -619.554)" class="color8f6a6e svgShape"></path><path fill="#555c6d" fill-rule="nonzero" d="M1636,825L1637,826L1636,825M1377,829L1378,830L1377,829Z" transform="translate(-1052.35 -619.554)" class="color555c6d svgShape"></path><path fill="#010101" fill-rule="nonzero" d="M1376,834C1373.42,840.9 1372.9,849.909 1375,857C1378.41,852.01 1378.32,839.52 1376,834Z" transform="translate(-1052.35 -619.554)" class="color010101 svgShape"></path><path fill="#cadb69" fill-rule="nonzero" d="M1636,835L1637,836L1636,835Z" transform="translate(-1052.35 -619.554)" class="color8f6a6e svgShape"></path><path fill="#555c6d" fill-rule="nonzero" d="M1647,836L1648,837L1647,836Z" transform="translate(-1052.35 -619.554)" class="color555c6d svgShape"></path><path fill="#cadb69" fill-rule="nonzero" d="M1647,837L1648,838L1647,837Z" transform="translate(-1052.35 -619.554)" class="color8f6a6e svgShape"></path><path fill="#555c6d" fill-rule="nonzero" d="M1388,838L1389,839L1388,838M1781,838L1782,839L1781,838Z" transform="translate(-1052.35 -619.554)" class="color555c6d svgShape"></path><path fill="#cadb69" fill-rule="nonzero" d="M1388,839L1389,840L1388,839Z" transform="translate(-1052.35 -619.554)" class="color8f6a6e svgShape"></path><path fill="#555c6d" fill-rule="nonzero" d="M1646,840L1647,841L1646,840M1894,840L1894,844L1895,844L1894,840M1907,842L1908,843L1907,842M1645,846L1646,847L1645,846M2043,846L2044,847L2043,846M1534,848L1535,849L1534,848Z" transform="translate(-1052.35 -619.554)" class="color555c6d svgShape"></path><path fill="#cadb69" fill-rule="nonzero" d="M1534,849L1535,850L1534,849Z" transform="translate(-1052.35 -619.554)" class="color8f6a6e svgShape"></path><path fill="#555c6d" fill-rule="nonzero" d="M1781,850L1782,851L1781,850M1793,851L1794,852L1793,851Z" transform="translate(-1052.35 -619.554)" class="color555c6d svgShape"></path><path fill="#abaab7" fill-rule="nonzero" d="M1780,853L1781,854L1780,853Z" transform="translate(-1052.35 -619.554)" class="colorabaab7 svgShape"></path><path fill="#555c6d" fill-rule="nonzero" d="M1794,853L1795,854L1794,853Z" transform="translate(-1052.35 -619.554)" class="color555c6d svgShape"></path><path fill="#cadb69" fill-rule="nonzero" d="M1780,854L1781,855L1780,854Z" transform="translate(-1052.35 -619.554)" class="color8f6a6e svgShape"></path><path fill="#555c6d" fill-rule="nonzero" d="M1896,854L1897,855L1896,854M1795,855L1796,856L1795,855Z" transform="translate(-1052.35 -619.554)" class="color555c6d svgShape"></path><path fill="#abaab7" fill-rule="nonzero" d="M1269,856L1270,857L1269,856Z" transform="translate(-1052.35 -619.554)" class="colorabaab7 svgShape"></path><path fill="#cadb69" fill-rule="nonzero" d="M1534,856L1535,857L1534,856Z" transform="translate(-1052.35 -619.554)" class="color8f6a6e svgShape"></path><path fill="#555c6d" fill-rule="nonzero" d="M1534,857L1535,858L1534,857M1270,858L1271,859L1270,858Z" transform="translate(-1052.35 -619.554)" class="color555c6d svgShape"></path><path fill="#cadb69" fill-rule="nonzero" d="M1535,858L1536,859L1535,858Z" transform="translate(-1052.35 -619.554)" class="color8f6a6e svgShape"></path><path fill="#555c6d" fill-rule="nonzero" d="M1535,859L1536,860L1535,859M1799,860L1800,861L1799,860M1536,861L1537,862L1536,861M1538,863L1539,864L1538,863M2054,864L2055,865L2054,864Z" transform="translate(-1052.35 -619.554)" class="color555c6d svgShape"></path><path fill="#cadb69" fill-rule="nonzero" d="M1272,865L1273,866L1272,865Z" transform="translate(-1052.35 -619.554)" class="color8f6a6e svgShape"></path><path fill="#555c6d" fill-rule="nonzero" d="M1276,868L1277,869L1276,868Z" transform="translate(-1052.35 -619.554)" class="color555c6d svgShape"></path><path fill="#cadb69" fill-rule="nonzero" d="M1276,870L1277,871L1276,870Z" transform="translate(-1052.35 -619.554)" class="color8f6a6e svgShape"></path><path fill="#f2b671" fill-rule="nonzero" d="M1549,870L1550,871L1549,870Z" transform="translate(-1052.35 -619.554)" class="colore0c86d svgShape"></path><path fill="#abaab7" fill-rule="nonzero" d="M1867,953C1862.5,966.228 1862,977.039 1862,991C1862,996.47 1860.96,1003.55 1866,1007L1865,990L1868,1003L1869,1003C1869,991.307 1870,979.722 1870,968C1870,962.635 1870.88,957.14 1867,953M1724,958L1718,980L1716,973L1715,973L1714,995L1715,995L1716,985L1718,985L1722,1008C1740.13,1003.2 1761.29,1006 1780,1006C1803.77,1006 1829.76,1002.49 1853,1007L1852,989L1854,989L1854,993L1855,993L1856,966L1855,966L1852,978C1850.19,970.38 1850.65,962.425 1853,955C1834.25,958.482 1814.03,956.206 1795,957.039C1772.1,958.042 1746.73,962.22 1724,958Z" transform="translate(-1052.35 -619.554)" class="colorabaab7 svgShape"></path><path fill="#cadb69" fill-rule="nonzero" d="M1461,960L1453,982L1453,972L1452,972L1451,995L1452,995L1453,987L1459,1010C1486.33,1002.77 1520.72,1008 1549,1008C1561.95,1008 1577.73,1005.53 1590,1010L1589,991L1590,991L1591,999L1592,999L1592,971L1591,971L1590,980L1588,980L1589,958C1562.81,958 1536.13,958.3 1510,960.089C1494.63,961.142 1476.12,963.601 1461,960Z" transform="translate(-1052.35 -619.554)" class="color8f6a6e svgShape"></path><path fill="#abaab7" fill-rule="nonzero" d="M1604,1003L1611,1009.89L1639,1010L1706,1009L1705,997L1707,1000L1708,1000L1708,988L1707,988L1707,994L1705,994C1704.41,986.488 1702.31,977.065 1708,971L1708,978L1709,978L1711,963L1710,963L1708,967L1708,958C1682.08,958.072 1656,959 1630,959C1623.65,959 1607.47,956.179 1602.97,961.329C1597.58,967.494 1596.23,982.257 1598.57,989.871C1600.08,994.784 1603.51,997.427 1604,1003M1444,960C1435.72,962.448 1425.61,961 1417,961L1365,961C1358.23,961 1349.6,959.573 1343.04,961.318C1332.98,963.995 1330.2,991.164 1339,996C1336.79,1001.14 1339.37,1004.46 1344,1007C1344.81,1015.12 1360.88,1012 1367,1012C1392.4,1012 1417.67,1011 1443,1011L1442,999L1443,999L1444,1003L1445,1003L1447,966L1446,966L1445,969L1444,969L1444,960Z" transform="translate(-1052.35 -619.554)" class="colorabaab7 svgShape"></path><path fill="#cadb69" fill-rule="nonzero" d="M1602,961L1603,962L1602,961Z" transform="translate(-1052.35 -619.554)" class="color8f6a6e svgShape"></path><path fill="#555c6d" fill-rule="nonzero" d="M1339,962L1340,963L1339,962Z" transform="translate(-1052.35 -619.554)" class="color555c6d svgShape"></path><path fill="#cadb69" fill-rule="nonzero" d="M1708,966L1709,967L1708,966Z" transform="translate(-1052.35 -619.554)" class="color8f6a6e svgShape"></path><path fill="#555c6d" fill-rule="nonzero" d="M1444,968L1445,969L1444,968Z" transform="translate(-1052.35 -619.554)" class="color555c6d svgShape"></path><path fill="#010101" fill-rule="nonzero" d="M1442,973L1441,995C1446.48,991.45 1444,978.958 1444,973L1442,973Z" transform="translate(-1052.35 -619.554)" class="color010101 svgShape"></path><path fill="#555c6d" fill-rule="nonzero" d="M1455.33,977.667L1455.67,978.333L1455.33,977.667M1852,977L1853,978L1852,977M1717,979L1718,980L1717,979M1453,987L1454,988L1453,987Z" transform="translate(-1052.35 -619.554)" class="color555c6d svgShape"></path><path fill="#cadb69" fill-rule="nonzero" d="M1601,993L1602,994L1601,993Z" transform="translate(-1052.35 -619.554)" class="color8f6a6e svgShape"></path><path fill="#555c6d" fill-rule="nonzero" d="M1336,995L1337,996L1336,995M1442,995L1443,996L1442,995Z" transform="translate(-1052.35 -619.554)" class="color555c6d svgShape"></path><path fill="#cadb69" fill-rule="nonzero" d="M1602,995L1603,996L1602,995Z" transform="translate(-1052.35 -619.554)" class="color8f6a6e svgShape"></path><path fill="#555c6d" fill-rule="nonzero" d="M1337,997L1338,998L1337,997Z" transform="translate(-1052.35 -619.554)" class="color555c6d svgShape"></path><path fill="#cadb69" fill-rule="nonzero" d="M1603,998L1604,999L1603,998Z" transform="translate(-1052.35 -619.554)" class="color8f6a6e svgShape"></path><path fill="#555c6d" fill-rule="nonzero" d="M1603,999L1604,1000L1603,999M1338,1002L1339,1003L1338,1002M1605,1002L1606,1003L1605,1002Z" transform="translate(-1052.35 -619.554)" class="color555c6d svgShape"></path><path fill="#cadb69" fill-rule="nonzero" d="M1340,1005L1341,1006L1340,1005Z" transform="translate(-1052.35 -619.554)" class="color8f6a6e svgShape"></path><path fill="#555c6d" fill-rule="nonzero" d="M1863,1005L1864,1006L1863,1005M1343,1007L1344,1008L1343,1007M1343,1009L1344,1010L1343,1009Z" transform="translate(-1052.35 -619.554)" class="color555c6d svgShape"></path><path fill="#cadb69" fill-rule="nonzero" d="M1670,1088L1671,1089L1670,1088Z" transform="translate(-1052.35 -619.554)" class="color8f6a6e svgShape"></path><path fill="#abaab7" fill-rule="nonzero" d="M1671,1088C1663.72,1100.53 1659.72,1130.6 1669,1143L1668,1125L1669,1125L1671,1136L1672,1136C1672.26,1123.29 1679.39,1098.67 1671,1088M1528,1093L1522,1115L1520,1115L1520,1104L1519,1104L1518,1126L1519,1126L1519,1120C1523.54,1125.22 1520.24,1137.05 1525.73,1140.93C1528.35,1142.79 1533.13,1140.48 1536,1140.17C1543.86,1139.33 1552.1,1140 1560,1140C1590.95,1140 1626.83,1135.1 1657,1142L1656,1124L1658,1133L1659,1133L1659,1103L1658,1103L1657,1113L1655,1113L1656,1090L1562,1093L1528,1093M1264,1095L1258,1117L1257,1117L1256,1109L1255,1109L1254,1134L1255,1134L1258,1122L1262,1145C1279.54,1139.44 1298.06,1142.97 1316,1143C1341.09,1143.04 1368.42,1138.38 1393,1144L1392,1126L1394,1126L1394,1130L1395,1130L1395,1108L1394,1108L1392,1115C1390.22,1107.52 1390.37,1099.23 1393,1092L1302,1095L1264,1095Z" transform="translate(-1052.35 -619.554)" class="colorabaab7 svgShape"></path><path fill="#555c6d" fill-rule="nonzero" d="M1413,1093L1413,1094L1417,1094L1413,1093Z" transform="translate(-1052.35 -619.554)" class="color555c6d svgShape"></path><path fill="#cadb69" fill-rule="nonzero" d="M1510,1144L1509,1132L1511,1136L1512,1136L1511,1125L1510,1125L1510,1129L1509,1129C1507.03,1120.76 1507.45,1113.04 1510,1105L1511,1105L1511,1120L1512,1120L1514,1098L1513,1098L1512,1101L1511,1101L1512,1093L1442,1093C1431.94,1093 1417.71,1090.83 1408.21,1094.68C1403.88,1096.44 1402.43,1103.88 1402.09,1108C1401.22,1118.84 1402.18,1137.68 1413.21,1143.98C1419.5,1147.56 1432.87,1145 1440,1145C1463.16,1145 1486.98,1141.09 1510,1144Z" transform="translate(-1052.35 -619.554)" class="color8f6a6e svgShape"></path><path fill="#555c6d" fill-rule="nonzero" d="M1411,1094L1412,1095L1411,1094Z" transform="translate(-1052.35 -619.554)" class="color555c6d svgShape"></path><path fill="#abaab7" fill-rule="nonzero" d="M1142,1130C1140.92,1135.03 1141.69,1139.34 1147,1141C1148.49,1150.35 1163.77,1147 1171,1147C1196.09,1147 1221.02,1144.93 1246,1146L1245,1134L1247,1137L1248,1137L1248,1124L1247,1124L1246,1131C1242.85,1123.53 1243.49,1114.26 1247,1107L1248,1113L1249,1113L1251,1099L1250,1099L1247,1103L1248,1095C1220.9,1095 1193,1093.22 1166,1095.87C1159.56,1096.5 1152.31,1094.72 1146.02,1096.22C1137.35,1098.29 1133.38,1127.48 1142,1130Z" transform="translate(-1052.35 -619.554)" class="colorabaab7 svgShape"></path><path fill="#555c6d" fill-rule="nonzero" d="M1142,1097L1143,1098L1142,1097M1249,1100L1250,1101L1249,1100M1510,1105L1511,1106L1510,1105M1657.33,1105.67L1657.67,1106.33L1657.33,1105.67M1522,1109L1523,1110L1522,1109Z" transform="translate(-1052.35 -619.554)" class="color555c6d svgShape"></path><path fill="#cadb69" fill-rule="nonzero" d="M1522,1110L1523,1111L1522,1110Z" transform="translate(-1052.35 -619.554)" class="color8f6a6e svgShape"></path><path fill="#555c6d" fill-rule="nonzero" d="M1392,1114L1393,1115L1392,1114M1656,1124L1657,1125L1656,1124M1511,1125L1512,1126L1511,1125M1668,1125L1669,1126L1668,1125M1509,1128L1510,1129L1509,1128M1245,1130L1246,1131L1245,1130M1509,1132L1510,1133L1509,1132M1405,1133L1406,1134L1405,1133M1406,1135L1407,1136L1406,1135M1407,1137L1408,1138L1407,1137M1142,1138L1143,1139L1142,1138M1409,1139L1410,1140L1409,1139M1669,1142L1670,1143L1669,1142M1148,1146L1149,1147L1148,1146M2334,1230L2335,1231L2334,1230Z" transform="translate(-1052.35 -619.554)" class="color555c6d svgShape"></path><path fill="#cadb69" fill-rule="nonzero" d="M2335,1230L2336,1231L2335,1230Z" transform="translate(-1052.35 -619.554)" class="color8f6a6e svgShape"></path><path fill="#abaab7" fill-rule="nonzero" d="M2334,1231C2328.96,1243.28 2328.93,1254.88 2329,1268C2329.03,1273.09 2329.4,1280.06 2334,1283L2332,1267L2334,1267L2335,1277L2336,1277C2337.86,1262.25 2339.73,1245.73 2337,1231L2334,1231Z" transform="translate(-1052.35 -619.554)" class="colorabaab7 svgShape"></path><path fill="#f2b671" fill-rule="nonzero" d="M2192,1234L2184,1256L2184,1246L2183,1246L2182,1269L2183,1269L2184,1261L2190,1284C2217.79,1277.65 2250.49,1282 2279,1282C2292.23,1282 2308.47,1279.43 2321,1284L2320,1265L2321,1265L2322,1273L2323,1273L2323,1245L2322,1245L2321,1255L2320,1255L2320,1232C2294.82,1232 2269.12,1232.37 2244,1234.09C2227.76,1235.2 2207.97,1237.8 2192,1234Z" transform="translate(-1052.35 -619.554)" class="colore0c86d svgShape"></path><path fill="#abaab7" fill-rule="nonzero" d="M1930,1236L1923,1259L1922,1249L1921,1249L1920,1273L1921,1273L1922,1263L1923,1263L1928,1286C1955.79,1279.65 1988.49,1284 2017,1284C2030.23,1284 2046.47,1281.43 2059,1286L2058,1267L2059,1269L2060,1269C2058.48,1257 2055.26,1246 2058,1234C2033.49,1234 2008.45,1234.41 1984,1236.09C1967.18,1237.24 1946.53,1239.94 1930,1236M2076,1285L2174,1285L2173,1274L2174,1274L2175,1277L2176,1277L2178,1240L2177,1240L2176,1243L2175,1243L2176,1235L2097,1235C2090.61,1235 2074.13,1232.02 2070.28,1238.15C2065.44,1245.85 2065.34,1264.73 2069.06,1272.83C2071.27,1277.64 2075.56,1279.31 2076,1285M1666,1239L1660,1261L1659,1261L1658,1254L1657,1254L1656,1272L1657,1272L1658,1266L1660,1266L1664,1288C1692.72,1283.78 1722.89,1286 1752,1286C1765.5,1286 1782.21,1283.34 1795,1288L1795,1269L1796,1269L1797,1281L1798,1281L1797,1253L1796,1253L1795,1259C1791.88,1251.6 1792.62,1243.51 1795,1236C1752.8,1236 1707.86,1244.29 1666,1239Z" transform="translate(-1052.35 -619.554)" class="colorabaab7 svgShape"></path><path fill="#555c6d" fill-rule="nonzero" d="M1813.67,1236.33L1814.33,1236.67L1813.67,1236.33M2070,1236L2071,1237L2070,1236Z" transform="translate(-1052.35 -619.554)" class="color555c6d svgShape"></path><path fill="#f2b671" fill-rule="nonzero" d="M1912,1287L1911,1276L1912,1276L1913,1279L1914,1279L1917,1240L1916,1240L1914,1245L1913,1245L1914,1237L1837,1237C1830.21,1237 1814.85,1234.16 1809.39,1238.6C1799.7,1246.5 1803.62,1266.73 1807.77,1276.04C1809.49,1279.91 1810.79,1284.71 1815.17,1286.41C1823.18,1289.52 1836.44,1287 1845,1287L1912,1287Z" transform="translate(-1052.35 -619.554)" class="colore0c86d svgShape"></path><path fill="#555c6d" fill-rule="nonzero" d="M1808,1238L1809,1239L1808,1238Z" transform="translate(-1052.35 -619.554)" class="color555c6d svgShape"></path><path fill="#abaab7" fill-rule="nonzero" d="M1541,1274L1545,1274C1542.55,1279.09 1544.56,1283.39 1550,1285C1549.86,1293.54 1567.19,1290 1573,1290C1597.37,1290 1625.12,1285.57 1649,1290L1647,1278L1650,1282L1651,1282L1650,1270L1649,1270L1649,1275L1648,1275C1646.14,1267.45 1644.46,1257.37 1650,1251L1650,1262L1651,1262L1653,1243L1652,1243L1651,1247L1650,1247L1650,1239L1574,1239C1567.07,1239 1551.92,1236.17 1546.27,1240.6C1537.52,1247.47 1539.81,1264.6 1541,1274Z" transform="translate(-1052.35 -619.554)" class="colorabaab7 svgShape"></path><path fill="#555c6d" fill-rule="nonzero" d="M1544,1241L1545,1242L1544,1241M2175,1242L2176,1243L2175,1242M1913,1244L1914,1245L1913,1244Z" transform="translate(-1052.35 -619.554)" class="color555c6d svgShape"></path><path fill="#010101" fill-rule="nonzero" d="M2173,1247L2172,1269C2177.48,1265.45 2175,1252.96 2175,1247L2173,1247Z" transform="translate(-1052.35 -619.554)" class="color010101 svgShape"></path><path fill="#555c6d" fill-rule="nonzero" d="M2321.33,1247.67L2321.67,1248.33L2321.33,1247.67Z" transform="translate(-1052.35 -619.554)" class="color555c6d svgShape"></path><path fill="#010101" fill-rule="nonzero" d="M1912,1249C1909.42,1255.9 1908.9,1264.91 1911,1272C1914.41,1267.01 1914.32,1254.52 1912,1249Z" transform="translate(-1052.35 -619.554)" class="color010101 svgShape"></path><path fill="#cadb69" fill-rule="nonzero" d="M2321,1249L2322,1250L2321,1249Z" transform="translate(-1052.35 -619.554)" class="color8f6a6e svgShape"></path><path fill="#555c6d" fill-rule="nonzero" d="M2186,1251L2187,1252L2186,1251Z" transform="translate(-1052.35 -619.554)" class="color555c6d svgShape"></path><path fill="#cadb69" fill-rule="nonzero" d="M2186,1252L2187,1253L2186,1252M1647,1254L1648,1255L1647,1254Z" transform="translate(-1052.35 -619.554)" class="color8f6a6e svgShape"></path><path fill="#abaab7" fill-rule="nonzero" d="M2320,1254L2321,1255L2320,1254Z" transform="translate(-1052.35 -619.554)" class="colorabaab7 svgShape"></path><path fill="#555c6d" fill-rule="nonzero" d="M1647,1255L1648,1256L1647,1255Z" transform="translate(-1052.35 -619.554)" class="color555c6d svgShape"></path><path fill="#cadb69" fill-rule="nonzero" d="M2058,1256L2059,1257L2058,1256M1923,1258L1924,1259L1923,1258M1659,1260L1660,1261L1659,1260M2184,1261L2185,1262L2184,1261M1795,1269L1796,1270L1795,1269Z" transform="translate(-1052.35 -619.554)" class="color8f6a6e svgShape"></path><path fill="#555c6d" fill-rule="nonzero" d="M2173,1269L2174,1270L2173,1269M2068,1270L2069,1271L2068,1270Z" transform="translate(-1052.35 -619.554)" class="color555c6d svgShape"></path><path fill="#cadb69" fill-rule="nonzero" d="M1657,1271L1658,1272L1657,1271Z" transform="translate(-1052.35 -619.554)" class="color8f6a6e svgShape"></path><path fill="#abaab7" fill-rule="nonzero" d="M1806,1272L1807,1273L1806,1272Z" transform="translate(-1052.35 -619.554)" class="colorabaab7 svgShape"></path><path fill="#555c6d" fill-rule="nonzero" d="M1806.33,1273.67L1806.67,1274.33L1806.33,1273.67Z" transform="translate(-1052.35 -619.554)" class="color555c6d svgShape"></path><path fill="#cadb69" fill-rule="nonzero" d="M1648,1274L1649,1275L1648,1274Z" transform="translate(-1052.35 -619.554)" class="color8f6a6e svgShape"></path><path fill="#555c6d" fill-rule="nonzero" d="M1543,1275L1544,1276L1543,1275Z" transform="translate(-1052.35 -619.554)" class="color555c6d svgShape"></path><path fill="#abaab7" fill-rule="nonzero" d="M1807,1275L1808,1276L1807,1275Z" transform="translate(-1052.35 -619.554)" class="colorabaab7 svgShape"></path><path fill="#555c6d" fill-rule="nonzero" d="M2070,1275L2071,1276L2070,1275M1807,1276L1808,1277L1807,1276M2071,1276L2072,1277L2071,1276Z" transform="translate(-1052.35 -619.554)" class="color555c6d svgShape"></path><path fill="#abaab7" fill-rule="nonzero" d="M1808,1277L1809,1278L1808,1277Z" transform="translate(-1052.35 -619.554)" class="colorabaab7 svgShape"></path><path fill="#555c6d" fill-rule="nonzero" d="M2072,1277L2073,1278L2072,1277Z" transform="translate(-1052.35 -619.554)" class="color555c6d svgShape"></path><path fill="#cadb69" fill-rule="nonzero" d="M2330.33,1277.67L2330.67,1278.33L2330.33,1277.67M2073,1278L2074,1279L2073,1278M2075,1279L2076,1280L2075,1279Z" transform="translate(-1052.35 -619.554)" class="color8f6a6e svgShape"></path><path fill="#555c6d" fill-rule="nonzero" d="M2330.33,1279.67L2330.67,1280.33L2330.33,1279.67Z" transform="translate(-1052.35 -619.554)" class="color555c6d svgShape"></path><path fill="#cadb69" fill-rule="nonzero" d="M1649,1280L1650,1281L1649,1280Z" transform="translate(-1052.35 -619.554)" class="color8f6a6e svgShape"></path><path fill="#abaab7" fill-rule="nonzero" d="M1809,1280L1810,1281L1809,1280Z" transform="translate(-1052.35 -619.554)" class="colorabaab7 svgShape"></path><path fill="#555c6d" fill-rule="nonzero" d="M1809,1281L1810,1282L1809,1281Z" transform="translate(-1052.35 -619.554)" class="color555c6d svgShape"></path><path fill="#abaab7" fill-rule="nonzero" d="M1811,1283L1812,1284L1811,1283Z" transform="translate(-1052.35 -619.554)" class="colorabaab7 svgShape"></path><path fill="#cadb69" fill-rule="nonzero" d="M2332.67,1283.33L2333.33,1283.67L2332.67,1283.33Z" transform="translate(-1052.35 -619.554)" class="color8f6a6e svgShape"></path><path fill="#555c6d" fill-rule="nonzero" d="M1546,1284L1547,1285L1546,1284Z" transform="translate(-1052.35 -619.554)" class="color555c6d svgShape"></path><path fill="#cadb69" fill-rule="nonzero" d="M1812,1284L1813,1285L1812,1284Z" transform="translate(-1052.35 -619.554)" class="color8f6a6e svgShape"></path><path fill="#555c6d" fill-rule="nonzero" d="M1550,1289L1551,1290L1550,1289Z" transform="translate(-1052.35 -619.554)" class="color555c6d svgShape"></path><g transform="matrix(.1 0 0 -.1 -1760 1622)" fill="#000000" class="color000 svgShape"><path fill-rule="nonzero" stroke="#000" stroke-width="10" d="M20523,18283C20518,18271 20525,18260 20545,18246C20612,18197 20653,18152 20722,18052C20762,17993 20836,17901 20888,17848L20982,17751L20991,17681C21000,17608 20991,17503 20969,17416C20956,17362 20945,17364 20936,17421C20932,17444 20907,17506 20880,17559C20804,17706 20698,17819 20578,17881C20513,17914 20492,17917 20483,17894C20479,17883 20498,17859 20542,17817C20628,17734 20662,17681 20714,17553C20774,17403 20814,17326 20858,17278L20895,17237L20845,17193C20772,17127 20665,17050 20580,17001C20539,16978 20489,16940 20468,16918L20432,16877L20213,16869C20093,16864 19894,16856 19770,16850C19646,16844 19464,16840 19366,16840C19202,16840 19182,16842 19142,16862C19102,16881 19093,16882 19056,16871C19033,16864 18984,16854 18945,16850C18846,16838 18006,16838 17994,16850C17988,16856 17952,16856 17895,16850C17808,16840 17240,16816 16800,16803C16593,16797 16583,16798 16543,16819C16495,16843 16449,16846 16417,16828C16383,16808 15431,16800 15411,16819C15401,16828 15381,16831 15346,16827C15288,16820 14985,16805 14615,16790C14307,16777 13967,16777 13954,16789C13949,16794 13928,16803 13906,16809C13875,16817 13859,16816 13816,16800C13768,16781 13736,16780 13244,16780L12724,16780L12698,16753C12684,16737 12660,16696 12645,16660C12621,16605 12617,16580 12616,16495C12616,16403 12618,16389 12648,16318C12666,16276 12700,16220 12723,16194L12764,16147L13256,16153L13747,16159L13770,16135C13790,16114 13803,16110 13852,16110C13924,16110 13971,16131 13963,16159C13959,16174 13964,16181 13981,16185C13994,16188 14271,16189 14595,16188L15185,16185L15246,16161C15304,16139 15310,16139 15341,16154C15369,16167 15441,16171 15745,16176C16325,16188 16340,16187 16353,16169C16376,16139 16411,16128 16462,16134C16531,16143 16562,16159 16556,16182C16553,16195 16559,16204 16573,16209C16585,16214 16856,16218 17174,16219C17727,16220 17755,16219 17797,16200C17868,16169 17903,16166 17946,16188C17982,16206 18017,16208 18395,16215C18621,16219 18838,16223 18877,16223L18950,16223L19012,16164C19047,16131 19093,16093 19115,16080C19161,16053 19409,15862 19458,15816C19487,15788 19490,15781 19490,15724C19490,15676 19482,15644 19457,15583C19438,15540 19411,15453 19395,15390C19358,15236 19324,15130 19294,15070C19267,15016 19269,15000 19303,15000C19332,15000 19375,15027 19430,15081C19481,15130 19524,15201 19565,15305C19591,15370 19592,15382 19587,15480C19584,15538 19574,15612 19565,15644C19557,15676 19551,15705 19554,15707C19561,15714 19704,15492 19745,15410C19766,15369 19791,15311 19801,15283C19818,15232 19818,15229 19800,15188C19790,15164 19768,15052 19750,14935C19705,14633 19700,14616 19629,14527C19563,14443 19612,14423 19710,14495C19796,14558 19858,14675 19899,14852C19915,14921 19913,15134 19895,15200C19876,15271 19877,15280 19898,15253C19973,15160 20176,14890 20219,14828C20274,14748 20288,14736 20311,14750C20331,14763 20308,14901 20271,14995C20230,15096 20135,15236 20063,15297C19980,15368 19891,15432 19845,15453C19809,15469 19798,15485 19739,15593C19703,15660 19676,15716 19680,15718C19695,15724 19798,15676 19880,15625C20020,15539 20104,15501 20216,15474C20326,15448 20350,15450 20350,15489C20350,15526 20035,15720 19912,15759C19839,15782 19731,15799 19659,15800C19615,15800 19612,15802 19494,15918C19429,15983 19331,16071 19278,16114C19182,16191 19158,16222 19179,16243C19186,16250 19373,16253 19786,16251C20349,16249 20385,16248 20432,16229C20498,16203 20535,16205 20584,16238L20625,16266L21170,16254C21470,16248 21732,16245 21753,16248C21797,16254 21816,16282 21845,16392C21880,16523 21845,16757 21781,16820C21755,16847 21751,16848 21590,16854C21499,16858 21254,16860 21045,16858C20696,16855 20662,16857 20632,16873L20600,16891L20632,16931C20650,16953 20707,17006 20760,17048C20888,17151 20950,17216 20984,17286C21005,17331 21025,17355 21067,17385C21174,17462 21244,17560 21285,17690C21298,17730 21304,17794 21307,17927C21312,18093 21311,18110 21295,18116C21265,18128 21252,18098 21221,17952C21187,17791 21172,17752 21107,17655L21062,17588L21055,17636C21026,17864 21009,17917 20925,18035C20847,18146 20766,18209 20631,18268C20547,18305 20532,18307 20523,18283ZM20833,18059C20862,18026 20904,17966 20925,17927L20963,17855L20912,17904C20866,17948 20787,18051 20734,18135L20715,18165L20747,18142C20765,18130 20803,18092 20833,18059ZM21236,17728C21211,17633 21174,17564 21108,17496C21051,17437 21050,17436 21064,17472C21072,17492 21101,17541 21128,17582C21187,17670 21240,17767 21240,17788C21240,17796 21243,17801 21246,17798C21249,17794 21244,17763 21236,17728ZM20815,17565C20865,17477 20893,17396 20888,17353C20885,17327 20883,17329 20852,17382C20835,17414 20802,17486 20779,17541C20757,17597 20732,17657 20723,17674L20708,17705L20739,17675C20755,17659 20790,17609 20815,17565ZM20510,16836C20510,16834 20500,16810 20489,16783C20470,16741 20466,16711 20462,16553C20458,16403 20460,16363 20474,16324C20490,16277 20489,16263 20472,16274C20467,16277 20460,16308 20456,16342C20446,16439 20439,16470 20428,16470C20416,16470 20422,16336 20435,16306C20442,16289 20441,16288 20424,16296C20395,16310 19214,16314 19166,16300C19144,16293 19124,16292 19119,16297C19114,16302 19103,16352 19093,16408C19077,16508 19061,16541 19059,16478C19059,16460 19054,16436 19049,16425C19038,16402 19046,16616 19058,16665C19064,16690 19066,16684 19070,16630L19075,16565L19093,16625C19103,16658 19118,16708 19126,16735L19141,16785L19398,16788C19539,16789 19828,16796 20040,16804C20252,16811 20427,16816 20428,16814C20430,16813 20427,16796 20421,16777C20408,16739 20417,16577 20430,16601C20434,16609 20443,16644 20449,16680C20465,16764 20489,16840 20501,16840C20506,16840 20510,16838 20510,16836ZM20615,16820C20653,16801 20674,16800 21145,16800C21414,16800 21659,16797 21689,16793C21740,16787 21743,16785 21761,16746C21778,16708 21778,16705 21762,16698C21747,16692 21748,16690 21766,16685C21781,16680 21789,16667 21794,16642C21805,16575 21800,16434 21785,16384C21758,16292 21820,16299 21170,16311C20794,16318 20593,16326 20589,16332C20585,16338 20576,16370 20569,16404C20557,16463 20556,16464 20550,16430C20544,16395 20551,16341 20565,16308C20569,16297 20568,16290 20561,16290C20554,16290 20542,16306 20534,16326C20521,16356 20519,16399 20522,16549C20526,16718 20528,16740 20549,16788C20562,16816 20573,16840 20574,16840C20575,16840 20593,16831 20615,16820ZM19102,16761C19087,16734 19074,16713 19072,16715C19065,16721 19109,16810 19118,16810C19124,16810 19116,16788 19102,16761ZM18518,16790L18990,16791L18985,16748L18979,16705L19000,16743C19028,16794 19033,16786 19013,16725C19001,16688 18997,16633 18996,16510C18995,16419 18998,16334 19002,16320C19006,16306 18999,16317 18987,16344C18960,16400 18946,16394 18960,16334C18965,16313 18970,16291 18970,16285C18970,16279 18797,16274 18479,16271L17989,16267L17994,16306C17997,16327 17997,16336 17994,16325C17982,16283 17972,16291 17959,16354C17945,16424 17930,16441 17930,16388C17929,16360 17928,16358 17919,16373C17913,16383 17910,16400 17913,16411C17916,16421 17914,16430 17909,16430C17896,16430 17898,16594 17911,16665C17917,16698 17928,16736 17935,16751C17949,16778 18003,16802 18030,16793C18038,16790 18258,16789 18518,16790ZM16493,16738C16483,16720 16470,16692 16463,16675C16457,16659 16451,16652 16451,16660C16450,16680 16499,16784 16506,16777C16509,16774 16503,16757 16493,16738ZM17810,16754C17798,16722 17797,16586 17809,16562C17818,16545 17836,16451 17850,16345C17854,16312 17863,16273 17869,16258C17875,16242 17875,16230 17870,16230C17855,16230 17850,16245 17839,16332C17826,16427 17812,16465 17809,16410C17806,16358 17811,16300 17820,16274C17829,16252 17828,16251 17792,16264C17744,16281 16581,16278 16537,16261C16512,16251 16508,16253 16499,16278C16493,16293 16482,16342 16475,16388C16468,16433 16460,16473 16457,16476C16452,16482 16444,16439 16437,16360C16435,16341 16433,16379 16432,16445C16432,16511 16435,16583 16439,16605L16448,16645L16449,16598C16449,16572 16454,16549 16459,16546C16467,16541 16478,16574 16510,16697C16520,16737 16523,16739 16563,16744C16586,16747 16751,16752 16930,16756C17109,16759 17343,16766 17450,16769C17557,16773 17684,16777 17732,16778L17820,16780L17810,16754ZM15220,16734C15208,16703 15207,16530 15218,16530C15223,16530 15233,16565 15242,16608L15257,16685L15256,16490C15255,16350 15259,16284 15268,16257C15276,16236 15279,16216 15276,16213C15264,16201 15258,16219 15246,16309C15239,16359 15231,16402 15228,16405C15215,16418 15210,16332 15220,16286C15232,16230 15230,16224 15202,16239C15172,16255 14011,16254 13958,16238C13909,16224 13905,16229 13890,16325C13866,16478 13860,16483 13849,16362C13844,16293 13843,16299 13842,16415C13842,16487 13845,16563 13849,16585L13858,16625L13859,16574C13859,16546 13863,16520 13867,16516C13871,16512 13888,16557 13905,16617L13935,16724L14038,16721C14147,16718 15147,16750 15217,16758C15226,16760 15227,16753 15220,16734ZM15931,16750L16370,16750L16370,16713L16371,16675L16395,16720C16423,16772 16426,16769 16406,16713C16373,16621 16360,16368 16384,16295C16387,16284 16380,16295 16368,16320C16350,16355 16345,16361 16342,16344C16341,16333 16343,16305 16348,16283L16357,16242L16251,16243C16193,16244 15977,16240 15773,16235L15400,16227L15400,16263C15400,16288 15396,16298 15388,16295C15365,16286 15341,16397 15335,16542C15325,16745 15336,16764 15449,16754C15473,16752 15690,16750 15931,16750ZM13920,16748C13919,16737 13860,16630 13860,16639C13860,16659 13902,16750 13911,16750C13916,16750 13920,16749 13920,16748ZM13776,16690C13773,16668 13772,16650 13775,16650C13777,16650 13789,16668 13800,16690C13826,16741 13833,16741 13816,16691C13791,16621 13778,16504 13781,16386C13785,16275 13784,16270 13771,16302L13756,16335L13752,16308C13750,16293 13753,16265 13759,16245C13769,16209 13769,16208 13743,16215C13729,16218 13516,16216 13270,16209C12885,16199 12820,16199 12794,16211C12778,16220 12766,16233 12766,16243C12767,16252 12761,16260 12754,16260C12737,16260 12700,16317 12700,16343C12700,16352 12706,16360 12713,16361C12719,16361 12715,16365 12703,16370C12648,16392 12666,16630 12728,16702C12742,16718 12781,16720 13214,16723C13473,16724 13707,16726 13734,16728L13783,16730L13776,16690ZM19167,16143C19204,16105 19258,16056 19285,16032C19318,16004 19311,16008 19265,16043C19227,16073 19165,16116 19127,16140C19090,16163 19062,16186 19065,16190C19068,16195 19064,16201 19058,16203C19051,16206 19057,16209 19072,16209C19092,16210 19115,16194 19167,16143ZM16500,16165C16500,16157 16491,16150 16481,16150C16457,16150 16445,16166 16462,16173C16486,16183 16500,16180 16500,16165ZM13910,16135C13910,16116 13889,16116 13864,16135C13846,16149 13847,16149 13878,16150C13900,16150 13910,16145 13910,16135ZM19917,15698C19979,15674 20113,15603 20170,15563L20205,15538L20170,15545C20113,15557 19812,15719 19847,15720C19853,15720 19884,15710 19917,15698ZM19530,15463C19530,15358 19530,15356 19486,15266C19441,15174 19396,15110 19385,15122C19381,15125 19383,15137 19388,15147C19393,15157 19414,15233 19434,15315C19474,15478 19509,15581 19522,15574C19526,15571 19530,15521 19530,15463ZM20002,15276C20054,15231 20096,15184 20136,15123C20197,15029 20244,14936 20238,14919C20235,14911 19975,15237 19900,15342C19886,15362 19887,15362 19905,15352C19916,15347 19959,15312 20002,15276ZM19850,14987C19850,14877 19825,14757 19785,14681C19756,14626 19756,14626 19774,14726C19782,14770 19798,14874 19811,14958C19824,15047 19837,15105 19842,15098C19846,15091 19850,15041 19850,14987Z" transform="translate(7066.54 -2524.46)" fill="#000000" class="color000 svgShape colorStroke000 svgStroke"></path><path fill-rule="nonzero" stroke="#000" stroke-width="10" d="M20567 16763C20559 16742 20549 16710 20545 16691 20537 16654 20548 16530 20559 16530 20563 16530 20573 16591 20581 16665 20589 16739 20592 16800 20589 16800 20585 16800 20575 16783 20567 16763zM18963 16640C18945 16598 18942 16440 18959 16440 18971 16440 18983 16549 18978 16615 18975 16661 18974 16663 18963 16640zM16348 16605C16334 16565 16328 16489 16335 16443 16347 16364 16361 16417 16358 16527 16356 16581 16352 16616 16348 16605zM13757 16585C13743 16552 13736 16405 13748 16384 13757 16369 13759 16373 13765 16410 13774 16473 13767 16611 13757 16585zM18520 15449C18415 15439 17906 15420 17552 15413 17292 15408 17287 15408 17239 15431L17190 15454 17132 15435C17080 15417 17033 15415 16588 15412 16139 15408 16099 15409 16083 15425 16070 15439 16055 15441 16011 15437 15957 15431 15740 15421 15255 15400 15129 15394 14940 15390 14836 15390 14662 15390 14643 15392 14602 15412L14557 15433 14490 15412C14426 15391 14408 15390 13908 15390L13393 15390 13367 15364C13353 15350 13329 15309 13314 15272 13291 15215 13286 15191 13286 15105 13286 15013 13288 14999 13319 14926 13340 14877 13369 14830 13396 14802L13439 14757 13872 14765C14440 14775 14408 14776 14440 14745 14462 14724 14476 14720 14524 14720 14590 14720 14642 14742 14633 14766 14630 14775 14633 14786 14641 14791 14649 14796 14923 14800 15250 14800 15821 14800 15847 14799 15889 14780 15935 14759 15990 14754 16019 14769 16028 14774 16229 14782 16466 14786 17107 14796 17041 14798 17072 14767 17094 14745 17108 14740 17150 14740 17222 14740 17270 14762 17270 14794 17270 14826 17198 14823 17913 14820 18450 14819 18484 14818 18527 14799 18587 14773 18638 14774 18672 14803L18700 14825 18710 15025C18716 15135 18720 15277 18718 15340L18715 15455 18660 15456C18630 15457 18567 15454 18520 15449zM18587 15358C18569 15312 18565 15279 18562 15114 18559 14956 18561 14917 18574 14885 18590 14847 18588 14828 18570 14846 18563 14853 18540 14995 18540 15032 18540 15037 18536 15040 18530 15040 18517 15040 18517 14919 18530 14885 18539 14861 18538 14859 18523 14866 18500 14878 17272 14877 17243 14866 17224 14859 17219 14862 17209 14886 17203 14902 17194 14952 17187 14998 17181 15043 17173 15080 17169 15080 17165 15080 17159 15054 17155 15023 17145 14927 17142 14930 17141 15039 17141 15096 17146 15173 17153 15209L17165 15275 17175 15135 17198 15220C17211 15267 17225 15316 17231 15330L17240 15355 17438 15356C17649 15357 18324 15377 18454 15385 18526 15390 18532 15389 18525 15373 18512 15341 18507 15272 18515 15215 18518 15184 18523 15160 18526 15162 18528 15165 18538 15209 18549 15261 18571 15367 18585 15410 18599 15410 18604 15410 18599 15386 18587 15358zM18703 15252C18703 15182 18698 15073 18694 15010L18687 14895 18670 14965C18659 15014 18652 15030 18647 15017 18636 14987 18639 14942 18655 14903 18673 14860 18673 14860 18656 14860 18620 14860 18604 14997 18618 15185 18625 15288 18632 15325 18651 15363 18672 15406 18676 15409 18690 15395 18702 15382 18705 15355 18703 15252zM15948 15324C15928 15272 15926 15245 15926 15085 15925 14958 15929 14894 15938 14867 15946 14846 15949 14826 15946 14823 15934 14811 15928 14830 15916 14919 15909 14969 15900 15013 15897 15016 15884 15029 15878 14944 15889 14897 15902 14840 15900 14834 15872 14849 15842 14865 14681 14864 14628 14848 14574 14832 14576 14829 14545 15024 14537 15074 14527 15062 14519 14992 14515 14951 14513 14970 14513 15055 14512 15178 14526 15290 14529 15183 14529 15155 14534 15129 14538 15126 14542 15124 14556 15163 14569 15213 14582 15264 14596 15310 14599 15317 14604 15326 14675 15330 14855 15334 15184 15341 15748 15358 15832 15365L15900 15370 15890 15344C15878 15314 15877 15140 15888 15140 15892 15140 15904 15181 15914 15232 15931 15323 15956 15398 15965 15388 15968 15385 15960 15357 15948 15324zM17195 15325C17181 15299 17170 15282 17170 15289 17170 15306 17210 15383 17216 15377 17219 15375 17209 15351 17195 15325zM14590 15354C14590 15351 14582 15336 14571 15322 14561 15307 14549 15285 14545 15272 14541 15259 14536 15251 14533 15253 14526 15260 14571 15360 14581 15360 14586 15360 14590 15357 14590 15354zM17084 15318L17079 15275 17105 15320C17119 15345 17128 15356 17125 15345 17092 15245 17074 14996 17092 14915 17098 14889 17097 14890 17082 14922 17051 14990 17043 14961 17066 14865 17071 14845 17065 14845 16586 14841 16067 14837 16070 14837 16070 14886 16070 14902 16066 14908 16056 14904 16046 14900 16040 14910 16035 14940 16031 14964 16018 14990 16003 15004 15978 15027 15978 15031 15981 15136 15985 15227 15989 15253 16010 15295L16035 15345 16120 15348C16166 15350 16206 15353 16209 15356 16211 15358 16410 15360 16651 15360L17088 15360 17084 15318zM14446 15298C14442 15277 14442 15260 14445 15260 14447 15260 14459 15278 14470 15300 14496 15351 14503 15351 14486 15301 14461 15231 14448 15114 14451 14996 14455 14894 14454 14882 14443 14909 14423 14956 14417 14946 14424 14883L14430 14825 13938 14825C13453 14825 13446 14825 13435 14845 13430 14857 13415 14876 13403 14889 13377 14917 13365 14960 13380 14970 13388 14975 13384 14979 13372 14982 13330 14993 13330 15160 13371 15265L13395 15325 13570 15330C13666 15333 13904 15336 14098 15335L14452 15335 14446 15298zM14517 14908C14514 14900 14511 14903 14511 14914 14510 14925 14513 14931 14516 14927 14519 14924 14520 14915 14517 14908zM17210 14765C17210 14747 17202 14747 17170 14765L17145 14779 17178 14780C17200 14780 17210 14775 17210 14765zM14580 14745C14580 14726 14559 14726 14534 14745 14516 14759 14517 14759 14548 14760 14570 14760 14580 14755 14580 14745z" transform="translate(7066.54 -2524.46)" fill="#000000" class="color000 svgShape colorStroke000 svgStroke"></path><path fill-rule="nonzero" stroke="#000" stroke-width="10" d="M17061 15230C17041 15151 17041 14974 17060 15011 17071 15032 17078 15171 17070 15205 17066 15222 17062 15233 17061 15230zM14427 15202C14413 15182 14406 15015 14418 14994 14427 14979 14429 14983 14435 15020 14443 15080 14437 15219 14427 15202zM16635 14109C16559 14101 15899 14073 15545 14063 15333 14057 15323 14058 15283 14079 15233 14104 15204 14105 15153 14085 15122 14073 15025 14070 14620 14068 14173 14065 14124 14067 14110 14081 14097 14095 14084 14096 14020 14089 13928 14078 13286 14051 12940 14043 12692 14038 12684 14038 12650 14059 12609 14084 12575 14085 12523 14066 12492 14054 12382 14051 11957 14047L11429 14043 11402 14017C11387 14003 11364 13963 11350 13928 11328 13874 11325 13849 11325 13750 11325 13638 11326 13633 11362 13560 11382 13519 11415 13469 11435 13450L11471 13415 11783 13415C11955 13415 12174 13417 12271 13420L12448 13425 12475 13398C12498 13375 12511 13370 12549 13371 12620 13372 12664 13391 12668 13423 12670 13440 12678 13450 12688 13451 12697 13452 12965 13453 13284 13455L13862 13458 13921 13434C13991 13405 14026 13404 14063 13429 14087 13444 14099 13446 14133 13438 14175 13428 14664 13433 14935 13446L15065 13452 15105 13420C15141 13391 15150 13388 15195 13393 15270 13401 15300 13415 15300 13444 15300 13463 15306 13469 15333 13473 15350 13476 15620 13479 15931 13479L16498 13480 16559 13455C16632 13425 16655 13424 16696 13449 16736 13473 16736 13474 16751 13814 16763 14081 16762 14094 16745 14107 16734 14114 16721 14119 16716 14119 16710 14118 16674 14114 16635 14109zM16640 14056C16640 14054 16630 14030 16619 14003 16600 13962 16596 13931 16592 13779 16588 13630 16590 13594 16605 13551 16614 13522 16620 13496 16617 13493 16606 13483 16592 13528 16581 13609 16575 13655 16568 13695 16565 13698 16548 13715 16548 13590 16565 13533 16572 13513 16571 13512 16536 13524 16491 13540 15327 13536 15285 13520 15271 13515 15257 13510 15255 13510 15248 13510 15231 13583 15219 13663 15207 13742 15190 13753 15190 13682 15190 13661 15186 13651 15179 13656 15168 13663 15175 13819 15190 13882 15197 13910 15198 13907 15199 13856 15200 13791 15210 13791 15228 13855 15234 13877 15246 13920 15255 13951L15270 14006 15493 14008C15615 14009 15819 14015 15945 14020 16072 14025 16262 14032 16369 14035L16563 14041 16555 14013C16546 13981 16546 13978 16548 13886 16550 13803 16563 13809 16579 13900 16594 13984 16619 14060 16631 14060 16636 14060 16640 14058 16640 14056zM16731 14038C16745 14013 16736 13629 16722 13589 16715 13570 16711 13577 16699 13631L16685 13695 16682 13636C16680 13603 16684 13564 16691 13548 16703 13519 16699 13503 16682 13514 16657 13529 16648 13612 16652 13781 16656 13935 16659 13961 16680 14008 16705 14066 16714 14071 16731 14038zM13995 14010C13961 13944 13948 13842 13955 13690 13960 13604 13968 13531 13976 13511 13984 13492 13988 13475 13985 13472 13972 13458 13960 13492 13950 13575 13943 13625 13934 13669 13929 13675 13916 13688 13917 13548 13930 13515 13939 13491 13938 13489 13923 13496 13900 13507 12673 13508 12643 13497 12614 13486 12603 13511 12588 13625 12582 13669 12574 13709 12569 13714 12565 13718 12559 13696 12555 13664 12543 13555 12541 13564 12545 13710 12547 13790 12553 13869 12559 13885L12570 13915 12566 13880C12563 13861 12564 13827 12568 13805 12575 13766 12576 13768 12605 13873L12635 13982 12845 13986C13047 13990 13487 14004 13789 14016 13925 14021 13932 14020 13924 14003 13912 13977 13907 13839 13917 13812 13924 13793 13930 13809 13949 13896 13972 14008 13984 14040 14001 14040 14006 14040 14004 14027 13995 14010zM15232 13981C15217 13954 15204 13933 15202 13935 15195 13941 15243 14040 15250 14035 15254 14032 15246 14008 15232 13981zM12620 14006C12620 14004 12609 13982 12595 13959 12567 13909 12561 13921 12587 13975 12601 14004 12620 14022 12620 14006zM14100 13993C14101 13976 14101 13976 14114 13993 14126 14009 14163 14010 14624 14010L15122 14010 15116 13968 15109 13925 15130 13963C15142 13985 15153 14000 15155 13998 15157 13997 15151 13970 15142 13940 15131 13900 15126 13840 15126 13717L15125 13549 15107 13587 15090 13625 15095 13563 15100 13502 14997 13503C14941 13503 14721 13500 14508 13495L14121 13487 14108 13516C14101 13532 14089 13551 14082 13559 14075 13566 14064 13592 14058 13616 14051 13640 14040 13660 14034 13660 14005 13660 14007 13849 14037 13935 14058 13996 14100 14033 14100 13993zM12482 13948L12479 13905 12501 13948C12513 13972 12524 13990 12525 13988 12527 13986 12519 13951 12508 13910 12488 13832 12478 13606 12492 13545 12498 13519 12497 13520 12482 13552 12465 13589 12450 13602 12450 13578 12451 13571 12455 13546 12459 13522L12467 13479 12381 13481C12334 13482 12116 13479 11897 13475 11521 13468 11498 13468 11479 13486 11468 13496 11461 13509 11464 13516 11467 13523 11460 13530 11450 13533 11427 13539 11393 13613 11411 13619 11418 13621 11414 13630 11399 13641 11377 13658 11375 13665 11376 13752 11377 13848 11402 13941 11436 13975 11449 13988 11522 13990 11968 13990L12486 13990 12482 13948zM15187 13578C15184 13570 15181 13573 15181 13584 15180 13595 15183 13601 15186 13597 15189 13594 15190 13585 15187 13578zM15245 13429C15256 13413 15243 13407 15213 13415 15187 13422 15187 13423 15205 13430 15233 13442 15238 13442 15245 13429zM12610 13405C12610 13397 12601 13390 12591 13390 12562 13390 12556 13408 12582 13413 12595 13415 12606 13418 12608 13419 12609 13419 12610 13413 12610 13405z" transform="translate(7066.54 -2524.46)" fill="#000000" class="color000 svgShape colorStroke000 svgStroke"></path><path fill-rule="nonzero" stroke="#000" stroke-width="10" d="M15086 13843C15077 13787 15079 13672 15089 13666 15101 13658 15110 13720 15110 13808 15110 13885 15097 13905 15086 13843zM12462 13859C12449 13821 12441 13734 12446 13692 12457 13603 12471 13648 12467 13761 12466 13818 12463 13862 12462 13859zM23230 12689C23098 12676 22484 12655 22205 12655 21971 12655 21929 12657 21892 12672 21851 12689 21848 12689 21797 12670 21748 12651 21720 12650 21267 12650 20839 12650 20787 12652 20772 12666 20760 12679 20744 12681 20701 12676 20547 12660 19787 12630 19525 12630 19371 12631 19319 12634 19300 12645 19267 12664 19211 12664 19167 12645 19112 12622 18153 12623 18136 12646 18126 12659 18111 12660 18020 12651 17962 12645 17787 12636 17630 12630 17473 12625 17226 12615 17080 12609 16807 12598 16715 12602 16668 12626 16633 12644 16581 12644 16537 12625 16506 12612 16423 12610 16013 12609 15745 12609 15503 12605 15475 12601 15441 12595 15421 12586 15410 12570 15303 12409 15323 12152 15454 12018 15487 11984 15493 11982 15575 11975 15622 11971 15841 11973 16061 11980L16461 11993 16491 11964C16518 11938 16528 11935 16577 11937 16652 11940 16690 11956 16690 11985 16690 12000 16698 12010 16713 12014 16725 12017 16996 12020 17315 12020 17860 12020 17897 12018 17936 12001 18001 11972 18035 11967 18067 11983 18090 11995 18186 11999 18600 12003L19105 12008 19132 11983C19155 11961 19167 11957 19216 11959 19287 11961 19334 11983 19325 12010 19320 12025 19325 12031 19342 12035 19355 12038 19631 12039 19955 12038L20545 12035 20606 12011C20663 11990 20670 11989 20701 12003 20729 12016 20819 12019 21231 12024L21727 12029 21750 12005C21770 11984 21783 11980 21832 11980 21904 11980 21951 12001 21943 12029 21939 12044 21944 12051 21961 12055 21974 12058 22251 12059 22575 12058L23165 12055 23224 12032C23282 12009 23285 12009 23322 12026 23343 12035 23364 12048 23369 12054 23374 12060 23384 12204 23391 12373 23405 12715 23407 12701 23340 12698 23321 12698 23271 12694 23230 12689zM23259 12584C23240 12532 23237 12502 23236 12340 23235 12203 23239 12147 23249 12122 23256 12104 23260 12087 23256 12083 23244 12071 23239 12088 23225 12180 23217 12231 23209 12274 23206 12277 23194 12289 23188 12202 23199 12157 23212 12100 23210 12094 23182 12109 23152 12125 21991 12124 21938 12108 21884 12092 21886 12089 21855 12284 21847 12335 21830 12313 21830 12251 21830 12227 21827 12210 21824 12213 21815 12222 21819 12418 21829 12460 21838 12494 21838 12493 21839 12443 21840 12415 21844 12389 21848 12386 21852 12384 21866 12423 21879 12473 21892 12524 21906 12570 21909 12577 21914 12586 21987 12590 22175 12594 22478 12599 23082 12618 23157 12624 23209 12628 23209 12628 23199 12604 23188 12574 23187 12400 23198 12400 23202 12400 23213 12442 23223 12492 23242 12584 23266 12657 23275 12648 23278 12645 23270 12617 23259 12584zM23376 12613C23386 12575 23372 12178 23360 12166 23355 12161 23348 12177 23344 12209 23340 12237 23333 12263 23329 12266 23316 12273 23318 12167 23330 12134 23337 12117 23337 12103 23331 12097 23326 12092 23316 12108 23305 12140 23291 12184 23289 12219 23292 12363 23296 12514 23300 12541 23320 12588 23345 12645 23366 12655 23376 12613zM20640 12569C20615 12506 20605 12493 20616 12535 20626 12580 20650 12634 20655 12628 20658 12625 20651 12598 20640 12569zM21900 12614C21900 12611 21892 12596 21881 12582 21871 12567 21859 12545 21855 12532 21851 12519 21846 12511 21843 12513 21836 12520 21881 12620 21891 12620 21896 12620 21900 12617 21900 12614zM18010 12552C17999 12524 17986 12461 17981 12413 17970 12314 17981 12106 17999 12073 18015 12042 18014 12024 17996 12039 17988 12045 17979 12076 17976 12108 17963 12221 17958 12242 17948 12232 17937 12221 17942 12097 17955 12068 17962 12051 17960 12051 17927 12065 17897 12077 17801 12079 17293 12077 16868 12075 16687 12071 16668 12063 16643 12052 16641 12053 16631 12081 16625 12098 16615 12149 16609 12196 16602 12242 16594 12278 16591 12274 16588 12271 16580 12243 16573 12212 16562 12159 16561 12163 16565 12280 16570 12421 16588 12513 16589 12402 16590 12336 16603 12326 16614 12382 16617 12400 16629 12447 16641 12485L16661 12555 16893 12555C17021 12555 17309 12561 17533 12568 17758 12576 17943 12580 17946 12578 17948 12575 17945 12559 17939 12541 17926 12506 17937 12346 17950 12371 17954 12379 17963 12414 17969 12450 17983 12528 17999 12580 18013 12598 18031 12621 18030 12605 18010 12552zM20580 12584C20567 12550 20567 12380 20580 12380 20586 12380 20590 12368 20590 12353 20590 12324 20613 12189 20631 12111 20640 12071 20637 12049 20625 12062 20622 12064 20615 12105 20609 12151 20602 12197 20594 12241 20590 12249 20576 12275 20568 12186 20580 12136 20586 12109 20589 12086 20587 12084 20585 12082 20570 12085 20554 12090 20519 12102 19341 12098 19298 12086 19273 12078 19271 12081 19261 12116 19256 12138 19249 12178 19245 12205 19230 12324 19220 12327 19210 12217 19204 12153 19203 12159 19202 12270 19202 12339 19205 12413 19209 12435L19218 12475 19219 12424C19219 12396 19223 12370 19227 12366 19231 12362 19248 12407 19265 12466L19295 12574 19409 12571C19530 12568 20503 12599 20577 12608 20586 12610 20587 12603 20580 12584zM19280 12596C19280 12594 19269 12572 19255 12549 19227 12499 19221 12511 19247 12565 19261 12594 19280 12612 19280 12596zM21756 12560C21753 12538 21752 12520 21755 12520 21757 12520 21769 12538 21780 12560 21806 12611 21813 12611 21796 12561 21770 12490 21758 12375 21762 12259 21765 12196 21770 12136 21774 12125 21778 12114 21769 12128 21755 12155L21730 12205 21736 12142C21741 12081 21740 12079 21720 12085 21709 12088 21504 12086 21265 12080 21026 12073 20815 12071 20795 12074 20764 12080 20760 12084 20760 12111 20760 12129 20756 12139 20750 12135 20744 12132 20736 12140 20731 12153 20720 12182 20700 12197 20700 12178 20700 12170 20695 12173 20689 12183 20683 12193 20680 12210 20683 12221 20686 12231 20683 12240 20678 12240 20660 12240 20674 12497 20695 12547L20712 12590 21184 12593C21443 12594 21679 12596 21709 12598L21763 12600 21756 12560zM16616 12519C16602 12490 16590 12473 16590 12481 16591 12502 16629 12584 16636 12577 16640 12574 16631 12547 16616 12519zM19137 12539C19131 12494 19133 12494 19167 12547 19181 12568 19189 12576 19185 12565 19151 12460 19145 12418 19145 12272 19145 12130 19144 12121 19131 12152 19118 12180 19116 12182 19113 12164 19111 12153 19113 12126 19118 12104L19127 12065 18996 12065C18924 12065 18707 12061 18513 12056L18162 12047 18136 12075C18121 12091 18094 12135 18075 12175 18042 12242 18040 12252 18040 12351 18040 12446 18043 12462 18068 12511L18095 12565 18580 12570C18847 12573 19082 12576 19104 12578L19143 12580 19137 12539zM16504 12513L16499 12465 16525 12510C16539 12535 16548 12546 16545 12535 16522 12461 16509 12359 16509 12249 16509 12180 16512 12115 16515 12104 16518 12094 16512 12102 16501 12124 16478 12171 16469 12160 16480 12100 16485 12075 16489 12053 16490 12050 16490 12047 16435 12044 16368 12045 16300 12045 16080 12041 15879 12036L15513 12027 15497 12050C15488 12063 15483 12077 15486 12082 15489 12086 15485 12090 15477 12090 15455 12090 15418 12170 15432 12187 15440 12197 15439 12200 15427 12200 15387 12200 15391 12403 15432 12492L15459 12550 15982 12553C16270 12554 16506 12556 16507 12558 16509 12559 16507 12539 16504 12513zM21827 12168C21824 12160 21821 12163 21821 12174 21820 12185 21823 12191 21826 12187 21829 12184 21830 12175 21827 12168zM21890 12005C21890 11986 21869 11986 21844 12005 21826 12019 21827 12019 21858 12020 21880 12020 21890 12015 21890 12005zM19270 11985C19270 11966 19249 11966 19224 11985 19206 11999 19207 11999 19238 12000 19260 12000 19270 11995 19270 11985zM16634 11965C16637 11955 16633 11950 16621 11950 16611 11950 16597 11957 16590 11965 16579 11978 16581 11980 16603 11980 16617 11980 16630 11973 16634 11965z" transform="translate(7066.54 -2524.46)" fill="#000000" class="color000 svgShape colorStroke000 svgStroke"></path><path fill-rule="nonzero" stroke="#000" stroke-width="10" d="M21737 12462C21723 12442 21716 12275 21728 12254 21737 12239 21739 12243 21745 12280 21753 12340 21747 12479 21737 12462zM19117 12435C19103 12403 19097 12267 19108 12240 19118 12215 19118 12215 19124 12250 19134 12300 19127 12460 19117 12435zM16473 12363C16463 12301 16467 12200 16480 12200 16484 12200 16490 12224 16494 12253 16503 12329 16501 12420 16491 12420 16486 12420 16478 12394 16473 12363z" transform="translate(7066.54 -2524.46)" fill="#000000" class="color000 svgShape colorStroke000 svgStroke"></path><g transform="matrix(10 0 0 -10 10770.7 17203)" fill="#000000" class="color000 svgShape"><path fill-rule="nonzero" d="M1407.18 584.695C1409.38 589.303 1410.49 595.015 1410.49 601.831 1410.49 610.855 1408.71 620.599 1405.16 631.063 1401.7 640.855 1397.77 648.535 1393.35 654.103 1392.87 655.735 1392.59 656.743 1392.49 657.127 1392.11 658.183 1391.53 659.047 1390.76 659.719 1389.42 660.775 1387.16 661.351 1383.99 661.447 1381.21 661.447 1378.47 660.583 1375.79 658.855 1375.5 658.663 1373.29 656.983 1369.16 653.815 1369.26 654.487 1369.59 655.543 1370.17 656.983 1370.46 657.943 1370.46 658.807 1370.17 659.575 1369.4 661.687 1368.15 662.839 1366.42 663.031 1364.22 663.223 1360.23 662.479 1354.47 660.799 1348.71 659.119 1345.4 657.607 1344.54 656.263 1343.96 655.399 1344.39 653.719 1345.83 651.223 1346.31 650.359 1346.55 648.343 1346.55 645.175L1346.55 548.407C1346.55 547.927 1346.1 547.039 1345.18 545.743 1344.27 544.447 1343.91 543.319 1344.11 542.359 1344.68 539.287 1346.65 537.751 1350.01 537.751 1353.18 537.751 1357.33 538.663 1362.46 540.487 1367.6 542.311 1370.6 544.183 1371.46 546.103 1371.85 546.967 1371.54 548.503 1370.53 550.711 1369.52 552.919 1368.92 554.743 1368.73 556.183L1368.73 579.799C1376.51 572.023 1382.75 568.423 1387.45 568.999 1390.71 569.383 1394.22 571.015 1397.96 573.895 1402.09 576.871 1405.16 580.471 1407.18 584.695zM1390.33 585.559C1386.68 586.999 1382.55 589.927 1377.94 594.343 1373.34 598.759 1370.41 602.455 1369.16 605.431L1369.16 644.311C1369.83 645.079 1370.99 645.943 1372.62 646.903 1375.79 647.479 1379.62 640.423 1384.14 625.735 1388.55 611.431 1390.76 599.623 1390.76 590.311 1390.76 588.391 1390.62 586.807 1390.33 585.559zM1487.82 654.247C1487.72 655.591 1487.14 656.743 1486.09 657.703 1485.03 658.663 1483.83 659.047 1482.49 658.855 1470.59 657.223 1463.96 654.967 1462.62 652.087 1462.42 651.703 1462.33 651.319 1462.33 650.935 1462.33 650.455 1462.55 649.927 1462.98 649.351 1463.41 648.775 1463.67 648.271 1463.77 647.839 1463.87 647.407 1464.06 646.999 1464.35 646.615 1464.54 645.847 1464.59 644.167 1464.49 641.575 1463.34 642.439 1461.61 644.743 1459.31 648.487 1456.9 652.615 1454.79 655.495 1452.97 657.127 1449.9 660.007 1446.39 661.447 1442.46 661.447 1440.15 661.447 1437.9 660.535 1435.69 658.711 1434.63 657.847 1432.76 655.975 1430.07 653.095 1425.46 647.911 1422.97 645.079 1422.59 644.599 1420.57 641.911 1419.56 639.367 1419.56 636.967 1419.56 636.199 1419.66 635.431 1419.85 634.663 1421.67 626.215 1427.34 618.199 1436.84 610.615 1443.75 605.143 1453.55 599.335 1466.22 593.191 1466.22 590.119 1465.45 588.151 1463.91 587.287 1462.95 586.711 1459.59 587.791 1453.83 590.527 1448.07 593.263 1444.04 595.591 1441.74 597.511 1440.97 598.279 1439.72 599.335 1437.99 600.679 1436.36 601.639 1434.87 601.927 1433.53 601.543 1432.47 601.255 1430.22 599.527 1426.76 596.359 1423.31 593.191 1421.43 591.079 1421.14 590.023 1420.38 587.431 1421.19 585.415 1423.59 583.975 1423.69 583.879 1425.61 583.303 1429.35 582.247 1432.9 580.327 1436.46 578.407 1440.01 576.487 1447.5 572.935 1453.83 571.015 1459.02 570.727 1461.23 570.631 1463.72 571.783 1466.51 574.183 1469 576.391 1471.52 578.575 1474.07 580.735 1476.61 582.895 1479.23 584.983 1481.91 586.999 1484.99 589.687 1486.52 592.279 1486.52 594.775L1486.52 649.207C1487.48 651.703 1487.91 653.383 1487.82 654.247zM1464.78 612.199C1460.07 614.023 1456.04 616.807 1452.68 620.551 1450.18 623.623 1447.69 626.647 1445.19 629.623 1443.18 631.639 1441.28 634.255 1439.51 637.471 1437.73 640.687 1436.84 643.063 1436.84 644.599 1436.84 645.367 1437.13 645.751 1437.7 645.751 1439.72 645.751 1444.23 641.407 1451.24 632.719 1458.25 624.031 1462.76 617.191 1464.78 612.199zM1607.91 648.199C1608.68 650.023 1609.07 651.847 1609.07 653.671 1609.07 656.551 1607.96 658.519 1605.75 659.575 1605.08 659.863 1603.88 660.007 1602.15 660.007 1598.89 660.007 1595 659.503 1590.49 658.495 1585.98 657.487 1583.24 656.503 1582.28 655.543 1581.8 654.967 1581.56 654.343 1581.56 653.671 1581.56 652.615 1582.28 650.911 1583.72 648.559 1585.16 646.207 1585.88 644.503 1585.88 643.447 1586.07 605.623 1585.79 586.567 1585.02 586.279 1583.48 585.799 1580.36 589.591 1575.66 597.655 1570.47 606.487 1567.88 614.167 1567.88 620.695L1567.88 648.919C1568.55 651.127 1568.89 652.855 1568.89 654.103 1568.89 656.503 1567.64 658.327 1565.14 659.575 1564.47 659.863 1563.27 660.007 1561.55 660.007 1558.28 660.007 1554.39 659.503 1549.88 658.495 1545.37 657.487 1542.63 656.503 1541.67 655.543 1541.29 655.159 1541.1 654.679 1541.1 654.103 1541.1 653.143 1541.79 651.415 1543.18 648.919 1544.58 646.423 1545.27 644.599 1545.27 643.447 1545.47 605.623 1545.18 586.567 1544.41 586.279 1543.07 585.799 1539.75 590.119 1534.47 599.239 1528.9 608.839 1526.12 616.087 1526.12 620.983L1526.12 647.911C1527.37 649.159 1527.99 650.695 1527.99 652.519 1527.99 656.167 1526.36 658.663 1523.1 660.007 1522.71 660.199 1522.14 660.295 1521.37 660.295 1518.78 660.295 1514.99 659.695 1509.99 658.495 1505 657.295 1502.22 656.311 1501.64 655.543 1501.07 654.775 1500.78 653.911 1500.78 652.951 1500.78 651.991 1501.33 650.839 1502.43 649.495 1503.54 648.151 1504.09 647.287 1504.09 646.903L1504.09 579.943C1504.09 579.175 1503.7 578.167 1502.94 576.919 1502.17 575.671 1501.93 574.615 1502.22 573.751 1502.79 571.735 1504.28 570.439 1506.68 569.863 1508.22 569.479 1511.82 570.007 1517.48 571.447 1523.62 572.983 1526.99 574.567 1527.56 576.199 1527.94 577.255 1527.8 578.839 1527.13 580.951 1526.07 584.311 1525.55 586.231 1525.55 586.711 1525.55 587.767 1525.74 588.919 1526.12 590.167 1527.56 585.367 1529.58 581.095 1532.17 577.351 1535.34 572.839 1538.51 570.583 1541.67 570.583 1544.75 570.583 1548.92 571.783 1554.2 574.183 1559.1 576.487 1562.12 578.455 1563.27 580.087 1564.14 581.239 1565.1 584.695 1566.15 590.455 1570.09 583.159 1572.35 578.983 1572.92 577.927 1576.18 573.031 1579.31 570.583 1582.28 570.583 1585.55 570.583 1589.77 571.711 1594.95 573.967 1600.14 576.223 1603.11 578.263 1603.88 580.087 1606.57 586.231 1607.91 608.935 1607.91 648.199zM1685.38 584.695C1687.59 589.303 1688.7 595.015 1688.7 601.831 1688.7 610.855 1686.92 620.599 1683.37 631.063 1679.91 640.855 1675.98 648.535 1671.56 654.103 1671.08 655.735 1670.79 656.743 1670.7 657.127 1670.31 658.183 1669.74 659.047 1668.97 659.719 1667.62 660.775 1665.37 661.351 1662.2 661.447 1659.42 661.447 1656.68 660.583 1653.99 658.855 1653.7 658.663 1651.5 656.983 1647.37 653.815 1647.47 654.487 1647.8 655.543 1648.38 656.983 1648.66 657.943 1648.66 658.807 1648.38 659.575 1647.61 661.687 1646.36 662.839 1644.63 663.031 1642.42 663.223 1638.44 662.479 1632.68 660.799 1626.92 659.119 1623.61 657.607 1622.75 656.263 1622.17 655.399 1622.6 653.719 1624.04 651.223 1624.52 650.359 1624.76 648.343 1624.76 645.175L1624.76 548.407C1624.76 547.927 1624.31 547.039 1623.39 545.743 1622.48 544.447 1622.12 543.319 1622.31 542.359 1622.89 539.287 1624.86 537.751 1628.22 537.751 1631.38 537.751 1635.54 538.663 1640.67 540.487 1645.81 542.311 1648.81 544.183 1649.67 546.103 1650.06 546.967 1649.75 548.503 1648.74 550.711 1647.73 552.919 1647.13 554.743 1646.94 556.183L1646.94 579.799C1654.71 572.023 1660.95 568.423 1665.66 568.999 1668.92 569.383 1672.42 571.015 1676.17 573.895 1680.3 576.871 1683.37 580.471 1685.38 584.695zM1668.54 585.559C1664.89 586.999 1660.76 589.927 1656.15 594.343 1651.55 598.759 1648.62 602.455 1647.37 605.431L1647.37 644.311C1648.04 645.079 1649.19 645.943 1650.83 646.903 1653.99 647.479 1657.83 640.423 1662.35 625.735 1666.76 611.431 1668.97 599.623 1668.97 590.311 1668.97 588.391 1668.83 586.807 1668.54 585.559zM1749.32 574.903C1754.6 577.399 1758.68 582.439 1761.56 590.023 1764.15 596.935 1765.45 605.095 1765.45 614.503 1765.45 627.463 1763.24 638.695 1758.83 648.199 1753.93 658.375 1747.83 662.983 1740.54 662.023 1737.85 661.351 1733.82 660.535 1728.44 659.575 1724.51 659.095 1720.95 658.375 1717.79 657.415 1712.31 655.975 1707.94 651.319 1704.68 643.447 1701.7 636.151 1700.22 627.607 1700.22 617.815 1700.22 607.927 1701.75 598.951 1704.83 590.887 1708.28 582.055 1713.13 575.863 1719.37 572.311 1720.42 571.735 1721.87 571.447 1723.69 571.447 1725.61 571.447 1729.4 572.071 1735.07 573.319 1738.71 573.319 1743.47 573.847 1749.32 574.903zM1733.19 587.863C1730.6 587.863 1728.2 591.007 1725.99 597.295 1723.79 603.583 1722.68 609.607 1722.68 615.367 1722.68 622.279 1723.5 629.095 1725.13 635.815 1726.95 643.111 1729.07 647.047 1731.47 647.623 1734.54 648.295 1737.27 644.839 1739.67 637.255 1741.98 629.959 1743.13 621.895 1743.13 613.063 1743.13 608.167 1742.51 603.319 1741.26 598.519 1739.53 591.415 1736.84 587.863 1733.19 587.863zM1826.79 574.903C1832.07 577.399 1836.15 582.439 1839.03 590.023 1841.62 596.935 1842.92 605.095 1842.92 614.503 1842.92 627.463 1840.71 638.695 1836.3 648.199 1831.4 658.375 1825.31 662.983 1818.01 662.023 1815.32 661.351 1811.29 660.535 1805.91 659.575 1801.98 659.095 1798.42 658.375 1795.26 657.415 1789.79 655.975 1785.42 651.319 1782.15 643.447 1779.18 636.151 1777.69 627.607 1777.69 617.815 1777.69 607.927 1779.23 598.951 1782.3 590.887 1785.75 582.055 1790.6 575.863 1796.84 572.311 1797.9 571.735 1799.34 571.447 1801.16 571.447 1803.08 571.447 1806.87 572.071 1812.54 573.319 1816.18 573.319 1820.94 573.847 1826.79 574.903zM1810.66 587.863C1808.07 587.863 1805.67 591.007 1803.47 597.295 1801.26 603.583 1800.15 609.607 1800.15 615.367 1800.15 622.279 1800.97 629.095 1802.6 635.815 1804.42 643.111 1806.54 647.047 1808.94 647.623 1812.01 648.295 1814.75 644.839 1817.14 637.255 1819.45 629.959 1820.6 621.895 1820.6 613.063 1820.6 608.167 1819.98 603.319 1818.73 598.519 1817 591.415 1814.31 587.863 1810.66 587.863z" fill="#000000" class="color000 svgShape"></path></g></g></svg></g></svg>